<?xml version="1.0" encoding="UTF-8" standalone="no"?>
<svg
   xmlns:dc="http://purl.org/dc/elements/1.1/"
   xmlns:cc="http://creativecommons.org/ns#"
   xmlns:rdf="http://www.w3.org/1999/02/22-rdf-syntax-ns#"
   xmlns:svg="http://www.w3.org/2000/svg"
   xmlns="http://www.w3.org/2000/svg"
   xmlns:sodipodi="http://sodipodi.sourceforge.net/DTD/sodipodi-0.dtd"
   xmlns:inkscape="http://www.inkscape.org/namespaces/inkscape"
   version="1.1"
   id="svg2"
   xml:space="preserve"
   width="285.30667"
   height="98.73333"
   viewBox="0 0 285.30667 98.73333"
   sodipodi:docname="get-it-on-google-play-seeklogo.com.eps"><metadata
     id="metadata8"><rdf:RDF><cc:Work
         rdf:about=""><dc:format>image/svg+xml</dc:format><dc:type
           rdf:resource="http://purl.org/dc/dcmitype/StillImage" /></cc:Work></rdf:RDF></metadata><defs
     id="defs6"><clipPath
       clipPathUnits="userSpaceOnUse"
       id="clipPath62"><path
         d="M 334.801,326.363 123.551,442.52 c -5.973,3.269 -11.52,4.031 -15.977,2.652 L 280.605,272.156 Z"
         id="path60" /></clipPath><linearGradient
       x1="0"
       y1="0"
       x2="1"
       y2="0"
       gradientUnits="userSpaceOnUse"
       gradientTransform="matrix(-60.4407,262.634,262.634,60.4407,244.128,286.083)"
       spreadMethod="pad"
       id="linearGradient70"><stop
         style="stop-opacity:1;stop-color:#d2eb89"
         offset="0"
         id="stop64" /><stop
         style="stop-opacity:1;stop-color:#92caa0"
         offset="0.4456"
         id="stop66" /><stop
         style="stop-opacity:1;stop-color:#3da6b8"
         offset="1"
         id="stop68" /></linearGradient><clipPath
       clipPathUnits="userSpaceOnUse"
       id="clipPath80"><path
         d="m 335.078,217.684 72.102,39.668 c 14.629,8.086 14.629,21.207 0,29.226 l -72.367,39.785 -54.208,-54.207 z"
         id="path78" /></clipPath><linearGradient
       x1="0"
       y1="0"
       x2="1"
       y2="0"
       gradientUnits="userSpaceOnUse"
       gradientTransform="matrix(154.682,-264.176,-264.176,-154.682,236.582,466.348)"
       spreadMethod="pad"
       id="linearGradient90"><stop
         style="stop-opacity:1;stop-color:#ec127c"
         offset="0"
         id="stop82" /><stop
         style="stop-opacity:1;stop-color:#ed177c"
         offset="0.0192"
         id="stop84" /><stop
         style="stop-opacity:1;stop-color:#f3b26a"
         offset="0.7039"
         id="stop86" /><stop
         style="stop-opacity:1;stop-color:#f7ec55"
         offset="1"
         id="stop88" /></linearGradient><clipPath
       clipPathUnits="userSpaceOnUse"
       id="clipPath100"><path
         d="M 107.563,445.184 C 101.145,443.176 96.9805,436.66 96.9805,426.82 l 0.0351,-309.711 c 0,-9.722 4.0434,-16.125 10.2694,-18.2613 l 173.32,173.3203 z"
         id="path98" /></clipPath><linearGradient
       x1="0"
       y1="0"
       x2="1"
       y2="0"
       gradientUnits="userSpaceOnUse"
       gradientTransform="matrix(-93.4932,360.733,360.733,93.4932,190.444,186.406)"
       spreadMethod="pad"
       id="linearGradient112"><stop
         style="stop-opacity:1;stop-color:#89d5b4"
         offset="0"
         id="stop102" /><stop
         style="stop-opacity:1;stop-color:#7ec3b7"
         offset="0.0907"
         id="stop104" /><stop
         style="stop-opacity:1;stop-color:#4b79b2"
         offset="0.5396"
         id="stop106" /><stop
         style="stop-opacity:1;stop-color:#2e55a7"
         offset="0.8523"
         id="stop108" /><stop
         style="stop-opacity:1;stop-color:#264ca0"
         offset="1"
         id="stop110" /></linearGradient><clipPath
       clipPathUnits="userSpaceOnUse"
       id="clipPath122"><path
         d="m 107.285,98.8359 c 4.508,-1.5273 10.153,-0.7968 16.266,2.5391 l 211.512,116.309 -54.458,54.461 z"
         id="path120" /></clipPath><linearGradient
       x1="0"
       y1="0"
       x2="1"
       y2="0"
       gradientUnits="userSpaceOnUse"
       gradientTransform="matrix(-324.105,-44.3968,-44.3968,324.105,379.018,210.048)"
       spreadMethod="pad"
       id="linearGradient132"><stop
         style="stop-opacity:1;stop-color:#f03923"
         offset="0"
         id="stop124" /><stop
         style="stop-opacity:1;stop-color:#b33a69"
         offset="0.4704"
         id="stop126" /><stop
         style="stop-opacity:1;stop-color:#863f95"
         offset="0.8353"
         id="stop128" /><stop
         style="stop-opacity:1;stop-color:#7441a4"
         offset="1"
         id="stop130" /></linearGradient></defs><sodipodi:namedview
     pagecolor="#ffffff"
     bordercolor="#666666"
     borderopacity="1"
     objecttolerance="10"
     gridtolerance="10"
     guidetolerance="10"
     inkscape:pageopacity="0"
     inkscape:pageshadow="2"
     inkscape:window-width="640"
     inkscape:window-height="480"
     id="namedview4" /><g
     id="g10"
     inkscape:groupmode="layer"
     inkscape:label="ink_ext_XXXXXX"
     transform="matrix(1.3333333,0,0,-1.3333333,0,98.733333)"><g
       id="g12"
       transform="scale(0.1)"><path
         d="M 2133.97,110.719 C 2133.97,46.0664 2086.46,5.87891 2021.88,5.87891 H 122.906 C 58.293,5.87891 5.87891,58.3047 5.87891,122.973 v 494.574 c 0,64.637 52.40239,117.051 117.02709,117.051 H 2021.88 c 64.58,0 112.09,-52.414 112.09,-117.051 V 110.719"
         style="fill:#100f0d;fill-opacity:1;fill-rule:nonzero;stroke:none"
         id="path14" /><path
         d="M 2133.97,110.719 C 2133.97,46.0664 2086.46,5.87891 2021.88,5.87891 H 122.906 C 58.293,5.87891 5.87891,58.3047 5.87891,122.973 v 494.574 c 0,64.637 52.40239,117.051 117.02709,117.051 H 2021.88 c 64.58,0 112.09,-52.414 112.09,-117.051 z"
         style="fill:none;stroke:#ffffff;stroke-width:11.758;stroke-linecap:butt;stroke-linejoin:miter;stroke-miterlimit:10;stroke-dasharray:none;stroke-opacity:1"
         id="path16" /><path
         d="M 2133.97,110.719 C 2133.97,46.0664 2086.46,5.87891 2021.88,5.87891 H 122.906 C 58.293,5.87891 5.87891,58.3047 5.87891,122.973 v 494.574 c 0,64.637 52.40239,117.051 117.02709,117.051 H 2021.88 c 64.58,0 112.09,-52.414 112.09,-117.051 V 110.719"
         style="fill:#100f0d;fill-opacity:1;fill-rule:nonzero;stroke:none"
         id="path18" /><path
         d="M 2133.97,110.719 C 2133.97,46.0664 2086.46,5.87891 2021.88,5.87891 H 122.906 C 58.293,5.87891 5.87891,58.3047 5.87891,122.973 v 494.574 c 0,64.637 52.40239,117.051 117.02709,117.051 H 2021.88 c 64.58,0 112.09,-52.414 112.09,-117.051 z"
         style="fill:none;stroke:#ffffff;stroke-width:11.758;stroke-linecap:butt;stroke-linejoin:miter;stroke-miterlimit:10;stroke-dasharray:none;stroke-opacity:1"
         id="path20" /><path
         d="m 1412.81,296 c 6.38,2.324 9.7,4.332 9.7,8.98 0,13.352 -15.09,28.735 -33.1,28.735 -13.35,0 -38.41,-10.383 -38.41,-46.492 0,-5.61 0.67,-11.621 1.01,-17.629 z m 47.39,-84.469 -16,-15.066 c -3.68,-2.008 -7.35,-4.395 -11.03,-6.051 -11.09,-5.039 -22.37,-6.301 -32.38,-6.301 -10.7,0 -27.41,0.696 -44.47,13.035 -23.73,16.696 -34.08,45.391 -34.08,70.422 0,51.809 42.19,77.196 76.57,77.196 12.02,0 24.36,-3.02 34.4,-9.36 16.7,-11.023 21.02,-25.386 23.42,-33.066 l -78.55,-31.738 -25.74,-1.997 c 8.34,-42.449 37.08,-67.14 68.82,-67.14 15.86,0 27.63,5.152 38.43,10.496 -0.01,-0.012 2.16,1.113 0.61,-0.43"
         style="fill:#ffffff;fill-opacity:1;fill-rule:nonzero;stroke:none"
         id="path22" /><path
         d="m 1295.98,214.133 c 0,-12.985 2.33,-15.004 13.3,-16.039 5.73,-0.668 11.43,-0.961 17.11,-1.656 l -12.37,-7.336 h -58.86 c 7.72,10.003 9.04,11 9.04,17.656 v 7.488 l -0.13,198.621 h -26.01 l 25.01,12.059 h 47.77 c -10.35,-5.996 -13.45,-9.637 -14.79,-21.317 l -0.07,-189.476"
         style="fill:#ffffff;fill-opacity:1;fill-rule:nonzero;stroke:none"
         id="path24" /><path
         d="m 1190.61,243.535 c 7.75,7.719 8.4,18.352 8.4,24.414 0,24.012 -14.32,61.446 -42.09,61.446 -8.67,0 -18.05,-4.344 -23.39,-11.063 -5.62,-6.973 -7.32,-16.004 -7.32,-24.668 0,-22.367 13.04,-59.484 41.73,-59.484 8.39,0 17.39,4.078 22.67,9.355 z m -9.6,-63.488 c -2.74,0.34 -4.39,0.34 -7.67,0.34 -3.02,0 -21.07,-0.668 -35.05,-5.356 -7.38,-2.715 -28.76,-10.683 -28.76,-34.418 0,-23.679 23.07,-40.781 58.77,-40.781 32.08,0 49.11,15.383 49.11,36.07 -0.02,17.078 -11.03,26.082 -36.4,44.145 z m 23.69,148.324 c 7.65,-6.316 23.66,-19.691 23.66,-45.062 0,-24.731 -13.94,-36.399 -28.01,-47.454 -4.32,-4.343 -9.36,-9.066 -9.36,-16.367 0,-7.375 5.04,-11.367 8.69,-14.383 l 12.09,-9.296 c 14.64,-12.379 28.04,-23.758 28.04,-46.805 0,-31.426 -30.4,-63.1017 -87.88,-63.1017 -48.43,0 -71.83,23.0237 -71.83,47.7427 0,12.046 5.99,29.085 25.74,40.769 20.73,12.652 48.78,14.359 63.82,15.332 -4.7,6.063 -10.05,12.414 -10.05,22.758 0,5.672 1.71,9.055 3.34,13.035 -3.65,-0.355 -7.32,-0.734 -10.68,-0.734 -35.44,0 -55.5,26.472 -55.5,52.476 0,15.383 7.04,32.41 21.41,44.778 19.05,15.683 41.77,18.398 59.78,18.398 h 68.84 l -21.37,-12.086 h -20.73 v 0"
         style="fill:#ffffff;fill-opacity:1;fill-rule:nonzero;stroke:none"
         id="path26" /><path
         d="m 1039.35,211.809 c 8.08,10.687 10.02,24.023 10.02,37.043 0,29.418 -14.02,85.531 -55.452,85.531 -11.016,0 -22.105,-4.309 -30.098,-11.344 -13.074,-11.68 -15.382,-26.355 -15.382,-40.781 0,-33 16.316,-87.449 56.822,-87.449 13.06,0 26.38,6.316 34.09,17 z M 997.566,184.77 c -53.109,0 -81.515,41.347 -81.515,78.785 0,43.75 35.719,81.199 86.519,81.199 49.1,0 79.87,-38.445 79.87,-78.824 0,-39.418 -30.4,-81.16 -84.874,-81.16"
         style="fill:#ffffff;fill-opacity:1;fill-rule:nonzero;stroke:none"
         id="path28" /><path
         d="m 861.555,211.809 c 8.008,10.687 10.015,24.023 10.015,37.043 0,29.418 -14.058,85.531 -55.457,85.531 -11.05,0 -22.039,-4.309 -30.047,-11.344 -13.086,-11.68 -15.382,-26.355 -15.382,-40.781 0,-33 16.367,-87.449 56.796,-87.449 13.059,0 26.372,6.316 34.075,17 z M 819.762,184.77 c -53.121,0 -81.477,41.347 -81.477,78.785 0,43.75 35.742,81.199 86.516,81.199 49.094,0 79.808,-38.445 79.808,-78.824 0,-39.418 -30.347,-81.16 -84.847,-81.16"
         style="fill:#ffffff;fill-opacity:1;fill-rule:nonzero;stroke:none"
         id="path30" /><path
         d="m 717.055,196.363 -44.797,-10.254 c -18.137,-2.882 -34.43,-5.394 -51.684,-5.394 -86.386,0 -119.312,63.59 -119.312,113.367 0,60.773 46.64,117.129 126.511,117.129 16.887,0 33.157,-2.477 47.969,-6.504 23.469,-6.605 34.457,-14.738 41.313,-19.504 l -26.028,-24.726 -10.976,-2.426 7.816,12.453 c -10.582,10.344 -30.058,29.453 -67.012,29.453 -49.421,0 -86.695,-37.551 -86.695,-92.414 0,-58.879 42.578,-114.285 110.817,-114.285 20.07,0 30.386,4.027 39.746,7.777 v 50.496 l -47.285,-2.527 25.07,13.449 h 66.355 l -8.133,-7.816 c -2.183,-1.856 -2.46,-2.477 -3.082,-5 -0.328,-2.867 -0.628,-11.91 -0.628,-15.106 v -38.168 h 0.035 v 0"
         style="fill:#ffffff;fill-opacity:1;fill-rule:nonzero;stroke:none"
         id="path32" /><path
         d="m 1662.97,263.34 c 0,37.926 -19.76,66.851 -54.84,66.851 -21.77,0 -42.57,-17.101 -51.63,-32.019 v -69.313 c 9.06,-14.941 29.86,-32.683 51.63,-32.683 35.08,0 54.84,29.172 54.84,67.164 z M 1556.5,210.105 v -85.101 h -16.9 v 216.539 h 16.9 v -24.641 c 11,15.926 31.12,28.559 54.47,28.559 41.9,0 70.15,-31.789 70.15,-82.098 0,-49.988 -28.23,-82.433 -70.15,-82.433 -22.03,-0.024 -41.79,11.34 -54.47,29.175"
         style="fill:#ffffff;fill-opacity:1;fill-rule:nonzero;stroke:none"
         id="path34" /><path
         d="M 1704.2,184.797 V 401.32 h 16.92 V 184.797 h -16.92"
         style="fill:#ffffff;fill-opacity:1;fill-rule:nonzero;stroke:none"
         id="path36" /><path
         d="m 1910.72,139.012 c 3.6,-1.617 9.76,-2.614 13.68,-2.614 10.32,0 17.54,4.243 23.98,19.172 l 12.35,27.922 -66.57,158.051 h 18.85 l 57.11,-136.969 56.55,136.969 h 19.13 L 1964.59,150.34 c -8.42,-19.715 -21.68,-29.188 -39.89,-29.188 -5.47,0 -12.65,0.985 -16.89,2.274 l 2.91,15.586"
         style="fill:#ffffff;fill-opacity:1;fill-rule:nonzero;stroke:none"
         id="path38" /><path
         d="m 1801.38,197.574 c 14.36,0 24.67,3.211 35.23,9.563 10.46,6.301 17.6,14.511 21.33,24.476 v 30.11 h -39.61 c -15.13,0 -27.63,-3.36 -37.51,-10.106 -9.86,-6.73 -14.89,-14.887 -14.89,-24.375 0,-8.941 3.18,-16.062 9.47,-21.48 6.34,-5.473 14.98,-8.188 25.98,-8.188 z m 59.97,-12.301 c -1.14,5.457 -1.97,10.231 -2.59,14.235 -0.52,3.965 -0.8,8.086 -0.8,12.226 -5.79,-8.511 -14,-15.586 -24.47,-21.168 -10.5,-5.593 -20.46,-8.359 -34.15,-8.359 -16.46,0 -29.22,4.027 -38.36,12.262 -9.09,8.211 -13.67,19.336 -13.67,33.406 0,14.07 6.64,25.477 19.83,34.164 13.21,8.777 30.28,13.109 51.41,13.109 h 39.42 v 19.5 c 0,11.243 -3.84,20.032 -11.47,26.45 -7.66,6.402 -18.42,9.621 -32.36,9.621 -12.76,0 -23.09,-2.942 -30.94,-8.699 -7.8,-5.887 -11.74,-13.161 -11.74,-21.942 h -17.3 l -0.33,0.836 c -0.63,11.848 4.78,22.231 16.31,31.184 11.43,8.98 26.48,13.465 44.97,13.465 18.39,0 33.32,-4.45 44.56,-13.278 11.23,-8.75 16.85,-21.43 16.85,-37.988 v -77.32 c 0,-5.547 0.26,-10.914 0.96,-16.141 0.73,-5.242 1.84,-10.457 3.38,-15.523 l -19.51,-0.04 v 0"
         style="fill:#ffffff;fill-opacity:1;fill-rule:nonzero;stroke:none"
         id="path40" /><path
         d="m 501.969,578.949 c 0,33.266 24.73,54.672 55.469,54.672 20.601,0 34.078,-9.824 42.464,-21.859 l -15.043,-8.715 c -5.711,7.906 -15.699,14.094 -27.421,14.094 -20.915,0 -36.45,-15.852 -36.45,-38.18 0,-22.039 15.535,-38.191 36.45,-38.191 10.777,0 20.273,4.91 25.035,9.484 v 16.344 h -31.692 v 16.316 h 50.067 v -39.469 c -10.293,-11.566 -25.196,-19.336 -43.422,-19.336 -30.727,0 -55.457,21.711 -55.457,54.84"
         style="fill:#ffffff;fill-opacity:1;fill-rule:nonzero;stroke:none"
         id="path42" /><path
         d="m 623.797,526.168 v 105.711 h 72.422 V 615.563 H 642.34 v -27.254 h 52.765 V 571.988 H 642.34 v -29.476 h 53.879 V 526.18 l -72.422,-0.012 v 0"
         style="fill:#ffffff;fill-opacity:1;fill-rule:nonzero;stroke:none"
         id="path44" /><path
         d="m 747.52,526.168 v 89.383 h -32.004 v 16.316 h 82.547 V 615.551 H 766.059 V 526.168 H 747.52"
         style="fill:#ffffff;fill-opacity:1;fill-rule:nonzero;stroke:none"
         id="path46" /><path
         d="m 862.504,526.168 v 105.711 h 18.539 V 526.168 h -18.539"
         style="fill:#ffffff;fill-opacity:1;fill-rule:nonzero;stroke:none"
         id="path48" /><path
         d="m 932.66,526.168 v 89.383 h -32.004 v 16.316 h 82.551 V 615.551 H 951.199 V 526.168 H 932.66"
         style="fill:#ffffff;fill-opacity:1;fill-rule:nonzero;stroke:none"
         id="path50" /><path
         d="m 1132.12,578.949 c 0,21.848 -13.79,38.18 -34.99,38.18 -21.4,0 -35.03,-16.316 -35.03,-38.18 0,-21.722 13.63,-38.191 35.03,-38.191 21.2,0 34.99,16.469 34.99,38.191 z m -89.06,0 c 0,31.535 22.34,54.672 54.04,54.672 31.53,0 54.02,-23.137 54.02,-54.672 0,-31.539 -22.49,-54.676 -54.02,-54.676 -31.7,0 -54.04,23.137 -54.04,54.676"
         style="fill:#ffffff;fill-opacity:1;fill-rule:nonzero;stroke:none"
         id="path52" /><path
         d="m 1246.46,526.168 -55.14,75.59 v -75.59 h -18.53 v 105.711 h 19.02 l 54.01,-73.203 v 73.203 h 18.56 V 526.168 h -17.92"
         style="fill:#ffffff;fill-opacity:1;fill-rule:nonzero;stroke:none"
         id="path54" /><g
         id="g56"><g
           id="g58"
           clip-path="url(#clipPath62)"><path
             d="M 334.801,326.363 123.551,442.52 c -5.973,3.269 -11.52,4.031 -15.977,2.652 l 173.031,-173.016 54.196,54.207"
             style="fill:url(#linearGradient70);fill-opacity:1;fill-rule:nonzero;stroke:none"
             id="path72" /></g></g><g
         id="g74"><g
           id="g76"
           clip-path="url(#clipPath80)"><path
             d="m 335.078,217.684 72.102,39.668 c 14.629,8.086 14.629,21.207 0,29.226 l -72.367,39.785 -54.208,-54.207 54.473,-54.472"
             style="fill:url(#linearGradient90);fill-opacity:1;fill-rule:nonzero;stroke:none"
             id="path92" /></g></g><g
         id="g94"><g
           id="g96"
           clip-path="url(#clipPath100)"><path
             d="M 107.563,445.184 C 101.145,443.176 96.9805,436.66 96.9805,426.82 l 0.0351,-309.711 c 0,-9.722 4.0434,-16.125 10.2694,-18.2613 L 280.605,272.168 107.563,445.184"
             style="fill:url(#linearGradient112);fill-opacity:1;fill-rule:nonzero;stroke:none"
             id="path114" /></g></g><g
         id="g116"><g
           id="g118"
           clip-path="url(#clipPath122)"><path
             d="m 107.285,98.8359 c 4.508,-1.5273 10.153,-0.7968 16.266,2.5391 L 335.063,217.684 280.605,272.145 107.285,98.8359"
             style="fill:url(#linearGradient132);fill-opacity:1;fill-rule:nonzero;stroke:none"
             id="path134" /></g></g></g></g></svg>
